<?xml version="1.0" encoding="UTF-8" standalone="no"?>
<!-- Created with Inkscape (http://www.inkscape.org/) -->

<svg
   xmlns:dc="http://purl.org/dc/elements/1.1/"
   xmlns:cc="http://creativecommons.org/ns#"
   xmlns:rdf="http://www.w3.org/1999/02/22-rdf-syntax-ns#"
   xmlns:svg="http://www.w3.org/2000/svg"
   xmlns="http://www.w3.org/2000/svg"
   xmlns:sodipodi="http://sodipodi.sourceforge.net/DTD/sodipodi-0.dtd"
   xmlns:inkscape="http://www.inkscape.org/namespaces/inkscape"
   width="35.634998mm"
   height="61.769001mm"
   viewBox="0 0 35.634998 61.769001"
   version="1.1"
   id="svg4971"
   inkscape:version="0.92.4 (5da689c313, 2019-01-14)"
   sodipodi:docname="logomts.svg">
  <defs
     id="defs4965" />
  <sodipodi:namedview
     id="base"
     pagecolor="#ffffff"
     bordercolor="#666666"
     borderopacity="1.0"
     inkscape:pageopacity="0.0"
     inkscape:pageshadow="2"
     inkscape:zoom="0.35"
     inkscape:cx="-222.85714"
     inkscape:cy="560"
     inkscape:document-units="mm"
     inkscape:current-layer="layer1"
     showgrid="false"
     inkscape:window-width="1360"
     inkscape:window-height="689"
     inkscape:window-x="0"
     inkscape:window-y="25"
     inkscape:window-maximized="1" />
  <metadata
     id="metadata4968">
    <rdf:RDF>
      <cc:Work
         rdf:about="">
        <dc:format>image/svg+xml</dc:format>
        <dc:type
           rdf:resource="http://purl.org/dc/dcmitype/StillImage" />
        <dc:title></dc:title>
      </cc:Work>
    </rdf:RDF>
  </metadata>
  <g
     inkscape:label="Capa 1"
     inkscape:groupmode="layer"
     id="layer1"
     transform="translate(0,-235.231)">
    <g
       id="g134"
       transform="matrix(0.35277777,0,0,-0.35277777,9.8475624,284.64058)">
      <path
         d="m 0,0 h -9.078 l -9.423,25.961 V 0 h -8.85 v 36.966 h 14.367 L -4.193,11.912 4.6,36.966 H 18.674 V 0 H 9.428 v 25.961 z"
         style="fill:#ffffff;fill-opacity:1;fill-rule:nonzero;stroke:none"
         id="path136"
         inkscape:connector-curvature="0" />
    </g>
    <g
       id="g138"
       transform="matrix(0.35277777,0,0,-0.35277777,23.309721,274.54025)">
      <path
         d="M 0,0 V -28.631 H -9.597 V 0 h -6.664 V 8.335 H 6.606 V 0 Z"
         style="fill:#ffffff;fill-opacity:1;fill-rule:nonzero;stroke:none"
         id="path140"
         inkscape:connector-curvature="0" />
    </g>
    <g
       id="g142"
       transform="matrix(0.35277777,0,0,-0.35277777,30.97245,276.29224)">
      <path
         d="m 0,0 5,-1.82 c 5.17,-1.973 8.218,-5.179 8.218,-10.68 0,-7.479 -5.69,-11.861 -13.676,-11.861 -11.379,0 -13.448,6.894 -13.104,12.285 h 9.081 c -0.114,-2.349 0.861,-4.646 4.023,-4.646 2.182,0 3.791,1.121 3.791,3.261 0,2.081 -1.609,3.097 -4.193,4.006 -2.012,0.748 -4.024,1.444 -6.207,2.456 -4.023,1.921 -6.148,5.558 -6.148,10.041 0,6.466 5.058,10.952 12.815,10.952 9.366,0 12.755,-4.966 12.349,-11.537 H 3.104 C 3.161,4.75 1.897,6.355 -0.346,6.355 -2.529,6.355 -3.62,5.13 -3.62,3.578 -3.62,2.029 -2.7,0.961 0,0"
         style="fill:#ffffff;fill-opacity:1;fill-rule:nonzero;stroke:none"
         id="path144"
         inkscape:connector-curvature="0" />
    </g>
    <g
       id="g146"
       transform="matrix(0.35277777,0,0,-0.35277777,0.66294845,290.25623)">
      <path
         d="m 0,0 h 0.547 c 3.163,0 4.827,1.921 4.827,4.966 0,3.032 -1.664,4.97 -4.827,4.97 H 0 Z m 0.547,10.854 c 3.722,0 5.883,-2.366 5.883,-5.888 0,-3.483 -2.175,-5.884 -5.903,-5.884 h -1.531 v 11.772 z"
         style="fill:#ffffff;fill-opacity:1;fill-rule:nonzero;stroke:none"
         id="path148"
         inkscape:connector-curvature="0" />
    </g>
    <g
       id="g150"
       transform="matrix(0.35277777,0,0,-0.35277777,3.7359514,290.58027)">
      <path
         d="M 0,0 V 11.773 H 4.864 V 10.854 H 1.003 V 6.549 H 4.762 V 5.631 H 1.003 V 0.918 H 4.898 V 0 Z"
         style="fill:#ffffff;fill-opacity:1;fill-rule:nonzero;stroke:none"
         id="path152"
         inkscape:connector-curvature="0" />
    </g>
    <g
       id="g154"
       transform="matrix(0.35277777,0,0,-0.35277777,6.9752724,288.03519)">
      <path
         d="m 0,0 c 0.833,-0.459 1.735,-0.7 2.567,-1.159 1.092,-0.612 1.769,-1.549 1.769,-2.979 0,-1.834 -1.31,-3.282 -3.386,-3.282 -2.398,0 -3.484,1.549 -3.484,3.623 h 1.002 c 0.016,-1.545 0.716,-2.739 2.482,-2.739 1.364,0 2.366,0.835 2.366,2.335 0,1.086 -0.509,1.716 -1.272,2.158 -0.854,0.494 -1.807,0.713 -2.676,1.225 -0.95,0.56 -1.546,1.378 -1.546,2.739 0,1.548 1.156,2.857 3.06,2.857 2.316,0 3.116,-1.615 3.099,-3.114 H 3.063 C 2.991,2.94 2.314,3.929 0.866,3.929 -0.458,3.929 -1.192,3.076 -1.192,1.907 -1.192,0.95 -0.698,0.39 0,0"
         style="fill:#ffffff;fill-opacity:1;fill-rule:nonzero;stroke:none"
         id="path156"
         inkscape:connector-curvature="0" />
    </g>
    <g
       id="g158"
       transform="matrix(0.35277777,0,0,-0.35277777,9.9933214,288.68355)">
      <path
         d="M 0,0 H 4.084 L 2.009,5.12 Z M 4.457,-0.901 H -0.354 L -2.109,-5.376 H -3.095 L 1.496,6.396 H 2.535 L 7.314,-5.376 H 6.277 Z"
         style="fill:#ffffff;fill-opacity:1;fill-rule:nonzero;stroke:none"
         id="path160"
         inkscape:connector-curvature="0" />
    </g>
    <g
       id="g162"
       transform="matrix(0.35277777,0,0,-0.35277777,13.563159,286.745)">
      <path
         d="m 0,0 v -4.357 h 1.462 c 1.496,0 2.264,0.853 2.264,2.213 C 3.726,-0.8 2.995,0 1.462,0 Z m 2.74,-5.07 3.114,-5.802 H 4.778 L 1.733,-5.258 H 0 v -5.614 H -1.004 V 0.901 h 2.466 c 2.06,0 3.316,-0.984 3.316,-3.03 0,-1.532 -0.815,-2.531 -2.038,-2.941"
         style="fill:#ffffff;fill-opacity:1;fill-rule:nonzero;stroke:none"
         id="path164"
         inkscape:connector-curvature="0" />
    </g>
    <g
       id="g166"
       transform="matrix(0.35277777,0,0,-0.35277777,16.581234,286.745)">
      <path
         d="m 0,0 v -4.357 h 1.463 c 1.496,0 2.264,0.853 2.264,2.213 C 3.727,-0.8 2.994,0 1.463,0 Z m 2.74,-5.07 3.111,-5.802 H 4.782 L 1.735,-5.258 H 0 v -5.614 H -1.004 V 0.901 h 2.467 c 2.06,0 3.319,-0.984 3.319,-3.03 0,-1.532 -0.818,-2.531 -2.042,-2.941"
         style="fill:#ffffff;fill-opacity:1;fill-rule:nonzero;stroke:none"
         id="path168"
         inkscape:connector-curvature="0" />
    </g>
    <g
       id="g170"
       transform="matrix(0.35277777,0,0,-0.35277777,21.027055,290.33481)">
      <path
         d="m 0,0 c 2.859,0 4.917,2.109 4.917,5.189 0,3.062 -2.058,5.207 -4.917,5.207 -2.859,0 -4.898,-2.145 -4.898,-5.207 C -4.898,2.109 -2.859,0 0,0 m 0,11.314 c 3.419,0 5.954,-2.568 5.954,-6.125 0,-3.519 -2.549,-6.104 -5.972,-6.104 -3.399,0 -5.919,2.498 -5.919,6.104 0,3.609 2.552,6.125 5.937,6.125"
         style="fill:#ffffff;fill-opacity:1;fill-rule:nonzero;stroke:none"
         id="path172"
         inkscape:connector-curvature="0" />
    </g>
    <g
       id="g174"
       transform="matrix(0.35277777,0,0,-0.35277777,23.930618,290.58027)">
      <path
         d="M 0,0 V 11.773 H 1.007 V 0.918 H 4.832 V 0 Z"
         style="fill:#ffffff;fill-opacity:1;fill-rule:nonzero;stroke:none"
         id="path176"
         inkscape:connector-curvature="0" />
    </g>
    <g
       id="g178"
       transform="matrix(0.35277777,0,0,-0.35277777,26.360869,290.58027)">
      <path
         d="M 0,0 V 11.773 H 1.007 V 0.918 H 4.834 V 0 Z"
         style="fill:#ffffff;fill-opacity:1;fill-rule:nonzero;stroke:none"
         id="path180"
         inkscape:connector-curvature="0" />
    </g>
    <g
       id="g182"
       transform="matrix(0.35277777,0,0,-0.35277777,30.42307,290.33481)">
      <path
         d="M 0,0 C 2.86,0 4.918,2.109 4.918,5.189 4.918,8.251 2.86,10.396 0,10.396 -2.855,10.396 -4.9,8.251 -4.9,5.189 -4.9,2.109 -2.855,0 0,0 m 0,11.314 c 3.422,0 5.954,-2.568 5.954,-6.125 0,-3.519 -2.55,-6.104 -5.969,-6.104 -3.403,0 -5.924,2.498 -5.924,6.104 0,3.609 2.554,6.125 5.939,6.125"
         style="fill:#ffffff;fill-opacity:1;fill-rule:nonzero;stroke:none"
         id="path184"
         inkscape:connector-curvature="0" />
    </g>
    <g
       id="g186"
       transform="matrix(0.35277777,0,0,-0.35277777,33.951209,288.03519)">
      <path
         d="m 0,0 c 0.836,-0.459 1.735,-0.7 2.568,-1.159 1.09,-0.612 1.77,-1.549 1.77,-2.979 0,-1.834 -1.308,-3.282 -3.388,-3.282 -2.398,0 -3.483,1.549 -3.483,3.623 h 1.003 c 0.016,-1.545 0.713,-2.739 2.48,-2.739 1.363,0 2.368,0.835 2.368,2.335 0,1.086 -0.51,1.716 -1.276,2.158 -0.85,0.494 -1.806,0.713 -2.67,1.225 -0.957,0.56 -1.551,1.378 -1.551,2.739 0,1.548 1.162,2.857 3.065,2.857 2.313,0 3.108,-1.615 3.095,-3.114 H 3.064 C 2.993,2.94 2.313,3.929 0.869,3.929 -0.46,3.929 -1.191,3.076 -1.191,1.907 -1.191,0.95 -0.694,0.39 0,0"
         style="fill:#ffffff;fill-opacity:1;fill-rule:nonzero;stroke:none"
         id="path188"
         inkscape:connector-curvature="0" />
    </g>
    <g
       id="g190"
       transform="matrix(0.35277777,0,0,-0.35277777,0.35825445,295.35359)">
      <path
         d="M 0,0 V 7.75 H 1.039 V 0.017 c 0,-2.258 1.022,-3.734 3.365,-3.734 2.188,0 3.364,1.549 3.364,3.734 V 7.75 H 8.793 V 0 C 8.793,-2.714 7.135,-4.667 4.404,-4.667 1.428,-4.667 0,-2.819 0,0"
         style="fill:#ffffff;fill-opacity:1;fill-rule:nonzero;stroke:none"
         id="path192"
         inkscape:connector-curvature="0" />
    </g>
    <g
       id="g194"
       transform="matrix(0.35277777,0,0,-0.35277777,6.3611474,292.94858)">
      <path
         d="m 0,0 v -4.51 h 1.516 c 1.549,0 2.341,0.88 2.341,2.29 C 3.857,-0.828 3.098,0 1.516,0 Z M 2.835,-5.251 6.06,-11.258 H 4.949 L 1.796,-5.446 H 0 v -5.812 H -1.041 V 0.933 h 2.557 c 2.13,0 3.433,-1.02 3.433,-3.136 0,-1.587 -0.845,-2.624 -2.114,-3.048"
         style="fill:#ffffff;fill-opacity:1;fill-rule:nonzero;stroke:none"
         id="path196"
         inkscape:connector-curvature="0" />
    </g>
    <g
       id="g198"
       transform="matrix(0.35277777,0,0,-0.35277777,11.020936,294.85149)">
      <path
         d="m 0,0 v -4.928 h 1.64 c 1.724,0 2.587,1.02 2.587,2.516 C 4.227,-0.947 3.403,0 1.64,0 Z m 0,5.391 v -4.49 h 1.517 c 1.549,0 2.341,0.863 2.341,2.273 0,1.392 -0.756,2.217 -2.341,2.217 z M 1.67,-5.864 H -1.04 V 6.327 H 1.517 C 3.646,6.327 4.951,5.325 4.951,3.208 4.951,1.977 4.388,1.044 3.453,0.563 4.581,0.16 5.32,-0.86 5.32,-2.412 5.32,-4.615 3.789,-5.864 1.67,-5.864"
         style="fill:#ffffff;fill-opacity:1;fill-rule:nonzero;stroke:none"
         id="path200"
         inkscape:connector-curvature="0" />
    </g>
    <g
       id="g202"
       transform="matrix(0.35277777,0,0,-0.35277777,15.961501,294.95587)">
      <path
         d="M 0,0 H 4.228 L 2.077,5.3 Z M 4.615,-0.933 H -0.372 L -2.185,-5.568 H -3.208 L 1.549,6.623 H 2.625 L 7.573,-5.568 H 6.5 Z"
         style="fill:#ffffff;fill-opacity:1;fill-rule:nonzero;stroke:none"
         id="path204"
         inkscape:connector-curvature="0" />
    </g>
    <g
       id="g206"
       transform="matrix(0.35277777,0,0,-0.35277777,21.193451,293.24695)">
      <path
         d="M 0,0 V -10.413 H -1.04 V 1.778 H 0.033 L 7.15,-8.704 V 1.778 H 8.192 V -10.413 H 7.115 Z"
         style="fill:#ffffff;fill-opacity:1;fill-rule:nonzero;stroke:none"
         id="path208"
         inkscape:connector-curvature="0" />
    </g>
    <g
       id="g210"
       transform="matrix(0.35277777,0,0,-0.35277777,28.619273,296.66481)">
      <path
         d="M 0,0 C 2.956,0 5.091,2.182 5.091,5.37 5.091,8.543 2.956,10.764 0,10.764 -2.958,10.764 -5.074,8.543 -5.074,5.37 -5.074,2.182 -2.958,0 0,0 m 0,11.714 c 3.541,0 6.163,-2.659 6.163,-6.344 0,-3.647 -2.643,-6.32 -6.182,-6.32 -3.522,0 -6.129,2.589 -6.129,6.32 0,3.737 2.642,6.344 6.148,6.344"
         style="fill:#ffffff;fill-opacity:1;fill-rule:nonzero;stroke:none"
         id="path212"
         inkscape:connector-curvature="0" />
    </g>
    <g
       id="g214"
       transform="matrix(0.35277777,0,0,-0.35277777,33.807276,294.28547)">
      <path
         d="m 0,0 c 0.862,-0.477 1.797,-0.721 2.658,-1.197 1.131,-0.634 1.833,-1.605 1.833,-3.08 0,-1.904 -1.357,-3.4 -3.504,-3.4 -2.484,0 -3.612,1.6 -3.612,3.748 h 1.036 c 0.022,-1.601 0.742,-2.833 2.576,-2.833 1.408,0 2.447,0.863 2.447,2.411 0,1.128 -0.527,1.779 -1.323,2.238 -0.878,0.512 -1.866,0.741 -2.764,1.271 -0.985,0.577 -1.601,1.426 -1.601,2.832 0,1.605 1.193,2.959 3.168,2.959 2.397,0 3.225,-1.671 3.206,-3.223 H 3.169 C 3.098,3.048 2.395,4.068 0.898,4.068 -0.476,4.068 -1.233,3.191 -1.233,1.977 -1.233,0.988 -0.722,0.407 0,0"
         style="fill:#ffffff;fill-opacity:1;fill-rule:nonzero;stroke:none"
         id="path216"
         inkscape:connector-curvature="0" />
    </g>
    <g
       id="g218"
       transform="matrix(0.35277777,0,0,-0.35277777,34.993561,235.23102)">
      <path
         d="m 0,0 v -99.302 h -9.871 v 17.837 l -33.053,21.025 v 17.301 l -14.023,-9.479 -6.985,4.669 z"
         style="fill:#ffffff;fill-opacity:1;fill-rule:nonzero;stroke:none"
         id="path220"
         inkscape:connector-curvature="0" />
    </g>
    <g
       id="g222"
       transform="matrix(0.35277777,0,0,-0.35277777,14.90322,253.79352)">
      <path
         d="M 0,0 V 0 L -0.001,0.001 Z"
         style="fill:#ffffff;fill-opacity:1;fill-rule:nonzero;stroke:none"
         id="path224"
         inkscape:connector-curvature="0" />
    </g>
    <g
       id="g226"
       transform="matrix(0.35277777,0,0,-0.35277777,14.903802,253.79352)">
      <path
         d="m 0,0 -17.213,-11.635 -16.802,-11.35 v -23.699 h -8.232 V 28.295 L -6.984,4.669 Z"
         style="fill:#ffffff;fill-opacity:1;fill-rule:nonzero;stroke:none"
         id="path228"
         inkscape:connector-curvature="0" />
    </g>
    <g
       id="g230"
       transform="matrix(0.35277777,0,0,-0.35277777,8.8319324,257.89732)">
      <path
         d="m 0,0 17.21,11.633 -0.001,0.001 z"
         style="fill:#ffffff;fill-opacity:1;fill-rule:nonzero;stroke:none"
         id="path232"
         inkscape:connector-curvature="0" />
    </g>
    <g
       id="g234"
       transform="matrix(0.35277777,0,0,-0.35277777,14.90322,253.79284)">
      <path
         d="M 0,0 0.002,-0.001 14.023,9.478 V 9.479 Z"
         style="fill:#ffffff;fill-opacity:1;fill-rule:nonzero;stroke:none"
         id="path236"
         inkscape:connector-curvature="0" />
    </g>
    <g
       id="g238"
       transform="matrix(0.35277777,0,0,-0.35277777,14.90322,253.79284)">
      <path
         d="M 0,0 -0.001,-0.001 0,-0.002 0.002,-0.001 Z"
         style="fill:#ffffff;fill-opacity:1;fill-rule:nonzero;stroke:none"
         id="path240"
         inkscape:connector-curvature="0" />
    </g>
  </g>
</svg>
