<?xml version="1.0" encoding="UTF-8" standalone="no"?>
<!-- Created with Inkscape (http://www.inkscape.org/) -->

<svg
   xmlns:dc="http://purl.org/dc/elements/1.1/"
   xmlns:cc="http://creativecommons.org/ns#"
   xmlns:rdf="http://www.w3.org/1999/02/22-rdf-syntax-ns#"
   xmlns:svg="http://www.w3.org/2000/svg"
   xmlns="http://www.w3.org/2000/svg"
   xmlns:sodipodi="http://sodipodi.sourceforge.net/DTD/sodipodi-0.dtd"
   xmlns:inkscape="http://www.inkscape.org/namespaces/inkscape"
   width="76.43mm"
   height="28.844999mm"
   viewBox="0 0 76.429999 28.844999"
   version="1.1"
   id="svg4971"
   sodipodi:docname="logoidear.svg"
   inkscape:version="0.92.4 (5da689c313, 2019-01-14)">
  <defs
     id="defs4965" />
  <sodipodi:namedview
     id="base"
     pagecolor="#ffffff"
     bordercolor="#666666"
     borderopacity="1.0"
     inkscape:pageopacity="0.0"
     inkscape:pageshadow="2"
     inkscape:zoom="0.35"
     inkscape:cx="-222.85714"
     inkscape:cy="560"
     inkscape:document-units="mm"
     inkscape:current-layer="layer1"
     showgrid="false"
     inkscape:window-width="1360"
     inkscape:window-height="689"
     inkscape:window-x="0"
     inkscape:window-y="25"
     inkscape:window-maximized="1" />
  <metadata
     id="metadata4968">
    <rdf:RDF>
      <cc:Work
         rdf:about="">
        <dc:format>image/svg+xml</dc:format>
        <dc:type
           rdf:resource="http://purl.org/dc/dcmitype/StillImage" />
        <dc:title></dc:title>
      </cc:Work>
    </rdf:RDF>
  </metadata>
  <g
     inkscape:label="Capa 1"
     inkscape:groupmode="layer"
     id="layer1"
     transform="translate(0,-268.155)">
    <g
       id="g242"
       transform="matrix(0.35277777,0,0,-0.35277777,76.116037,293.15825)">
      <path
         d="m 0,0 c 0,-5.52 -6.013,-9.999 -13.429,-9.999 h -188.015 c -7.416,0 -13.427,4.479 -13.427,9.999 v 59.987 c 0,5.523 6.011,9.998 13.427,9.998 H -13.429 C -6.013,69.985 0,65.51 0,59.987 Z"
         style="fill:#ffffff;fill-opacity:1;fill-rule:nonzero;stroke:none"
         id="path244"
         inkscape:connector-curvature="0" />
    </g>
    <g
       id="g246"
       transform="matrix(0.35277777,0,0,-0.35277777,76.116037,293.15825)">
      <path
         d="m 0,0 c 0,-5.52 -6.013,-9.999 -13.429,-9.999 h -188.015 c -7.416,0 -13.427,4.479 -13.427,9.999 v 59.987 c 0,5.523 6.011,9.998 13.427,9.998 H -13.429 C -6.013,69.985 0,65.51 0,59.987 Z"
         style="fill:none;stroke:#a7a7a6;stroke-width:1.78199995;stroke-linecap:butt;stroke-linejoin:miter;stroke-miterlimit:10;stroke-dasharray:none;stroke-opacity:1"
         id="path248"
         inkscape:connector-curvature="0" />
    </g>
    <g
       id="g250"
       transform="matrix(0.35277777,0,0,-0.35277777,76.116037,293.15825)">
      <path
         d="m 0,0 c 0,-5.52 -6.013,-9.999 -13.429,-9.999 h -188.015 c -7.416,0 -13.427,4.479 -13.427,9.999 v 59.987 c 0,5.523 6.011,9.998 13.427,9.998 H -13.429 C -6.013,69.985 0,65.51 0,59.987 Z"
         style="fill:#ffffff;fill-opacity:1;fill-rule:nonzero;stroke:none"
         id="path252"
         inkscape:connector-curvature="0" />
    </g>
    <g
       id="g254"
       transform="matrix(0.35277777,0,0,-0.35277777,76.116037,293.15825)">
      <path
         d="m 0,0 c 0,-5.52 -6.013,-9.999 -13.429,-9.999 h -188.015 c -7.416,0 -13.427,4.479 -13.427,9.999 v 59.987 c 0,5.523 6.011,9.998 13.427,9.998 H -13.429 C -6.013,69.985 0,65.51 0,59.987 Z"
         style="fill:none;stroke:#a7a7a6;stroke-width:0.44499999;stroke-linecap:butt;stroke-linejoin:round;stroke-miterlimit:10;stroke-dasharray:none;stroke-opacity:1"
         id="path256"
         inkscape:connector-curvature="0" />
    </g>
    <g
       id="g258"
       transform="matrix(0.35277777,0,0,-0.35277777,9.0955742,276.08815)">
      <path
         d="m 0,0 -9.37,0.011 0.005,6.942 9.369,-0.01 z m -0.04,-33.548 -9.371,0.006 0.039,30.107 9.368,-0.007 z"
         style="fill:#626465;fill-opacity:1;fill-rule:nonzero;stroke:none"
         id="path260"
         inkscape:connector-curvature="0" />
    </g>
    <g
       id="g262"
       transform="matrix(0.35277777,0,0,-0.35277777,65.667537,280.76694)">
      <path
         d="m 0,0 c 0.004,3.257 -0.768,5.909 -2.304,7.952 -1.541,2.047 -3.517,3.066 -5.934,3.069 -2.522,0.004 -4.531,-1.022 -6.021,-3.076 -1.488,-2.057 -2.233,-4.823 -2.238,-8.297 -0.001,-3.323 0.711,-6.051 2.141,-8.189 1.485,-2.254 3.515,-3.382 6.088,-3.389 1.221,0 2.322,0.275 3.303,0.822 l -2.972,3.34 3.059,3.703 3.294,-3.609 c 0.624,1.462 0.988,2.419 1.095,2.878 C -0.166,-3.609 -0.001,-2.008 0,0 M 10.739,-0.407 C 10.733,-5.492 9.327,-10.159 6.522,-14.408 l 4.182,-4.04 -4.209,-4.361 -4.537,4.385 c 0.035,0 -0.4,-0.233 -1.298,-0.7 -1.011,-0.539 -2.113,-0.953 -3.302,-1.242 -1.694,-0.466 -3.515,-0.699 -5.464,-0.696 -6.42,0.004 -11.321,2.175 -14.707,6.504 -2.954,3.717 -4.427,8.464 -4.421,14.231 0.006,5.697 1.489,10.406 4.448,14.115 3.396,4.288 8.249,6.428 14.56,6.421 5.915,-0.003 10.598,-1.977 14.057,-5.906 3.276,-3.786 4.917,-8.693 4.908,-14.71"
         style="fill:#17a9e1;fill-opacity:1;fill-rule:nonzero;stroke:none"
         id="path264"
         inkscape:connector-curvature="0" />
    </g>
    <g
       id="g266"
       transform="matrix(0.35277777,0,0,-0.35277777,18.211924,282.77179)">
      <path
         d="m 0,0 c 0,2.801 -0.618,5.102 -1.849,6.897 -1.233,1.796 -2.783,2.694 -4.65,2.694 -2.018,0 -3.625,-0.863 -4.819,-2.579 -1.196,-1.722 -1.792,-4.023 -1.792,-6.901 0,-2.92 0.616,-5.216 1.849,-6.901 1.12,-1.607 2.557,-2.412 4.314,-2.412 2.053,0 3.723,0.853 5.014,2.552 C -0.646,-4.945 0,-2.732 0,0 M 7.875,-14.77 H 0 v 3.317 c -1.951,-2.962 -5.065,-4.444 -9.34,-4.444 -3.451,0 -6.34,1.781 -8.664,5.345 -2.102,3.264 -3.152,6.94 -3.152,11.029 0,4.35 0.957,7.952 2.87,10.802 2.325,3.414 5.739,5.119 10.239,5.119 3.714,0 6.395,-1.576 8.047,-4.726 v 14.742 h 7.875 z"
         style="fill:#626465;fill-opacity:1;fill-rule:nonzero;stroke:none"
         id="path268"
         inkscape:connector-curvature="0" />
    </g>
    <g
       id="g270"
       transform="matrix(0.35277777,0,0,-0.35277777,30.795402,281.55154)">
      <path
         d="m 0,0 c -0.227,4.235 -2.196,6.358 -5.906,6.358 -3.748,0 -5.831,-2.123 -6.248,-6.358 z m 8.327,-2.871 c 0,-0.898 -0.056,-1.705 -0.17,-2.419 h -20.198 c -0.075,-0.226 -0.113,-0.581 -0.113,-1.068 0,-1.987 0.614,-3.592 1.841,-4.809 1.225,-1.222 2.824,-1.831 4.794,-1.831 1.301,0 2.509,0.376 3.624,1.124 1.002,0.713 1.634,1.52 1.895,2.419 h 7.989 c -1.051,-2.962 -2.898,-5.342 -5.541,-7.145 -2.645,-1.799 -5.599,-2.7 -8.862,-2.7 -3.639,0 -6.696,1.144 -9.17,3.434 -2.963,2.736 -4.446,6.658 -4.446,11.76 0,5.474 1.19,9.685 3.572,12.629 2.383,2.944 5.805,4.416 10.268,4.416 4.352,0 7.859,-1.454 10.523,-4.36 2.662,-2.906 3.994,-6.724 3.994,-11.45"
         style="fill:#626465;fill-opacity:1;fill-rule:nonzero;stroke:none"
         id="path272"
         inkscape:connector-curvature="0" />
    </g>
    <g
       id="g274"
       transform="matrix(0.35277777,0,0,-0.35277777,42.486307,283.23828)">
      <path
         d="M 0,0 V 1.18 C -1.132,0.542 -2.281,0.149 -3.45,0 c -2.753,-0.341 -4.599,-0.752 -5.541,-1.239 -1.321,-0.637 -1.98,-1.764 -1.98,-3.376 0,-2.328 1.451,-3.487 4.353,-3.487 C -2.206,-8.102 0,-5.405 0,0 M 9.171,-13.28 H 0.787 c -0.374,0.598 -0.657,1.593 -0.844,2.982 -2.889,-2.889 -6.132,-4.333 -9.733,-4.333 -2.926,0 -5.158,0.815 -6.696,2.447 -1.538,1.632 -2.305,3.95 -2.305,6.95 0,2.474 0.731,4.593 2.193,6.358 1.463,1.761 3.433,2.829 5.907,3.205 1.162,0.153 3.132,0.414 5.908,0.79 1.651,0.261 2.841,0.665 3.573,1.208 0.731,0.543 1.133,1.416 1.21,2.617 0.112,2.063 -1.518,3.094 -4.895,3.094 -3.526,0 -5.345,-1.65 -5.458,-4.953 h -7.483 c 0.149,3.602 1.229,6.275 3.235,8.019 2.006,1.747 5.148,2.617 9.425,2.617 8.401,0 12.603,-3.244 12.603,-9.734 v -16.82 c 0,-1.315 0.581,-2.46 1.744,-3.435 z"
         style="fill:#626465;fill-opacity:1;fill-rule:nonzero;stroke:none"
         id="path276"
         inkscape:connector-curvature="0" />
    </g>
    <g
       id="g278"
       transform="matrix(0.35277777,0,0,-0.35277777,54.673177,279.80576)">
      <path
         d="m 0,0 c -1.051,0.115 -1.82,0.171 -2.307,0.171 -2.215,0 -3.948,-0.592 -5.205,-1.772 -1.256,-1.183 -1.884,-2.672 -1.884,-4.475 V -23.01 h -7.877 V 7.486 h 7.877 V 1.577 c 0.563,1.799 1.687,3.32 3.375,4.559 1.688,1.235 3.376,1.855 5.064,1.855 0.188,0 0.506,-0.039 0.957,-0.112 z"
         style="fill:#626465;fill-opacity:1;fill-rule:nonzero;stroke:none"
         id="path280"
         inkscape:connector-curvature="0" />
    </g>
    <g
       id="g282"
       transform="matrix(0.35277777,0,0,-0.35277777,7.4411872,292.37381)">
      <path
         d="M 0,0 V 0.275 C -0.262,0.129 -0.529,0.035 -0.799,0 c -0.638,-0.077 -1.067,-0.174 -1.286,-0.285 -0.306,-0.15 -0.459,-0.411 -0.459,-0.783 0,-0.539 0.337,-0.807 1.009,-0.807 C -0.511,-1.875 0,-1.249 0,0 M 2.126,-3.076 H 0.183 c -0.087,0.139 -0.152,0.368 -0.195,0.692 -0.67,-0.671 -1.423,-1.006 -2.258,-1.006 -0.678,0 -1.195,0.192 -1.552,0.568 -0.357,0.379 -0.536,0.915 -0.536,1.611 0,0.574 0.171,1.065 0.51,1.472 0.339,0.411 0.795,0.658 1.369,0.745 0.27,0.035 0.727,0.097 1.37,0.184 0.383,0.06 0.66,0.153 0.829,0.279 0.17,0.125 0.262,0.327 0.28,0.605 0.026,0.481 -0.352,0.721 -1.135,0.721 -0.817,0 -1.239,-0.386 -1.265,-1.149 h -1.734 c 0.034,0.835 0.283,1.455 0.749,1.859 0.464,0.403 1.194,0.605 2.186,0.605 1.948,0 2.921,-0.752 2.921,-2.255 v -3.901 c 0,-0.303 0.135,-0.567 0.404,-0.797 z"
         style="fill:#a3a6a6;fill-opacity:1;fill-rule:nonzero;stroke:none"
         id="path284"
         inkscape:connector-curvature="0" />
    </g>
    <g
       id="g286"
       transform="matrix(0.35277777,0,0,-0.35277777,10.497018,291.57697)">
      <path
         d="m 0,0 c -0.243,0.024 -0.421,0.038 -0.534,0.038 -0.514,0 -0.916,-0.136 -1.208,-0.411 -0.291,-0.274 -0.437,-0.619 -0.437,-1.036 v -3.926 h -1.825 v 7.068 h 1.825 V 0.365 c 0.132,0.418 0.392,0.769 0.783,1.055 0.391,0.289 0.782,0.431 1.174,0.431 0.045,0 0.118,-0.01 0.222,-0.024 z"
         style="fill:#a3a6a6;fill-opacity:1;fill-rule:nonzero;stroke:none"
         id="path288"
         inkscape:connector-curvature="0" />
    </g>
    <g
       id="g290"
       transform="matrix(0.35277777,0,0,-0.35277777,12.908854,292.3504)">
      <path
         d="m 0,0 c 0,0.738 -0.138,1.322 -0.418,1.75 -0.278,0.425 -0.661,0.641 -1.147,0.641 -0.418,0 -0.769,-0.213 -1.056,-0.63 -0.288,-0.418 -0.432,-0.954 -0.432,-1.615 0,-0.647 0.139,-1.173 0.418,-1.58 0.278,-0.411 0.639,-0.616 1.083,-0.616 0.443,0 0.813,0.198 1.109,0.595 C -0.148,-1.058 0,-0.574 0,0 M 1.826,-6.014 H 0 v 3.602 c -0.356,-0.411 -0.673,-0.686 -0.952,-0.821 -0.279,-0.14 -0.626,-0.209 -1.044,-0.209 -0.861,0 -1.556,0.313 -2.087,0.936 -0.558,0.661 -0.835,1.573 -0.835,2.729 0,1.078 0.28,1.983 0.842,2.721 0.56,0.734 1.246,1.099 2.054,1.099 0.486,0 0.87,-0.072 1.148,-0.222 C -0.561,3.657 -0.271,3.344 0,2.885 v 1.04 h 1.826 z"
         style="fill:#a3a6a6;fill-opacity:1;fill-rule:nonzero;stroke:none"
         id="path292"
         inkscape:connector-curvature="0" />
    </g>
    <g
       id="g294"
       transform="matrix(0.35277777,0,0,-0.35277777,16.811776,293.459)">
      <path
         d="m 0,0 h -1.828 v 0.845 c -0.478,-0.755 -1.155,-1.134 -2.034,-1.134 -0.783,0 -1.391,0.237 -1.827,0.706 -0.409,0.436 -0.612,0.996 -0.612,1.682 v 4.969 h 1.826 V 2.241 c 0,-0.285 0.109,-0.512 0.325,-0.675 0.218,-0.167 0.51,-0.247 0.874,-0.247 0.393,0 0.732,0.111 1.019,0.337 0.286,0.227 0.429,0.491 0.429,0.794 V 7.068 H 0 Z"
         style="fill:#a3a6a6;fill-opacity:1;fill-rule:nonzero;stroke:none"
         id="path296"
         inkscape:connector-curvature="0" />
    </g>
    <path
       d="m 18.54639,293.4591 h -0.644525 v -2.49343 h 0.644525 z m 0,-2.77953 h -0.644525 v -0.57574 h 0.644525 z"
       style="fill:#a3a6a6;fill-opacity:1;fill-rule:nonzero;stroke:none;stroke-width:0.35277775"
       id="path298"
       inkscape:connector-curvature="0" />
    <g
       id="g300"
       transform="matrix(0.35277777,0,0,-0.35277777,20.718931,293.51068)">
      <path
         d="m 0,0 c -0.426,-0.104 -0.813,-0.153 -1.161,-0.153 -0.461,0 -0.857,0.139 -1.187,0.424 -0.33,0.282 -0.496,0.617 -0.496,1.01 v 4.58 h -0.901 v 1.211 h 0.901 v 1.921 h 1.826 V 7.072 H 0 V 5.861 H -1.018 V 1.646 c 0,-0.271 0.205,-0.407 0.613,-0.407 C -0.31,1.25 -0.175,1.26 0,1.267 Z"
         style="fill:#a3a6a6;fill-opacity:1;fill-rule:nonzero;stroke:none"
         id="path302"
         inkscape:connector-curvature="0" />
    </g>
    <g
       id="g304"
       transform="matrix(0.35277777,0,0,-0.35277777,23.065997,291.9821)">
      <path
         d="M 0,0 C -0.053,0.985 -0.51,1.476 -1.37,1.476 -2.24,1.476 -2.721,0.985 -2.818,0 Z m 1.93,-0.665 c 0,-0.209 -0.012,-0.397 -0.038,-0.56 h -4.684 c -0.018,-0.052 -0.026,-0.136 -0.026,-0.251 0,-0.459 0.142,-0.828 0.426,-1.113 0.285,-0.282 0.656,-0.425 1.112,-0.425 0.303,0 0.582,0.087 0.841,0.261 0.233,0.167 0.379,0.355 0.439,0.561 H 1.852 C 1.609,-2.878 1.18,-3.431 0.568,-3.849 -0.044,-4.267 -0.73,-4.476 -1.488,-4.476 c -0.843,0 -1.552,0.268 -2.125,0.797 -0.688,0.634 -1.031,1.542 -1.031,2.725 0,1.271 0.276,2.248 0.827,2.931 C -3.263,2.659 -2.47,3 -1.435,3 -0.426,3 0.387,2.662 1.005,1.991 1.622,1.315 1.93,0.432 1.93,-0.665"
         style="fill:#a3a6a6;fill-opacity:1;fill-rule:nonzero;stroke:none"
         id="path306"
         inkscape:connector-curvature="0" />
    </g>
    <g
       id="g308"
       transform="matrix(0.35277777,0,0,-0.35277777,26.756829,292.58982)">
      <path
         d="m 0,0 c -0.382,-1.834 -1.449,-2.753 -3.196,-2.753 -1.036,0 -1.831,0.306 -2.388,0.922 -0.556,0.613 -0.834,1.514 -0.834,2.705 0,1.134 0.252,2.032 0.757,2.704 0.573,0.762 1.439,1.144 2.595,1.144 0.974,0 1.696,-0.229 2.166,-0.689 C -0.483,3.623 -0.183,2.937 0,1.97 h -1.804 c -0.107,0.431 -0.261,0.734 -0.465,0.911 -0.205,0.178 -0.505,0.265 -0.897,0.265 -0.924,0 -1.386,-0.738 -1.386,-2.213 0,-1.476 0.513,-2.21 1.543,-2.21 0.314,0 0.56,0.094 0.74,0.285 0.178,0.192 0.337,0.522 0.477,0.992 z"
         style="fill:#a3a6a6;fill-opacity:1;fill-rule:nonzero;stroke:none"
         id="path310"
         inkscape:connector-curvature="0" />
    </g>
    <g
       id="g312"
       transform="matrix(0.35277777,0,0,-0.35277777,28.749406,293.51068)">
      <path
         d="m 0,0 c -0.426,-0.104 -0.813,-0.153 -1.161,-0.153 -0.462,0 -0.857,0.139 -1.186,0.424 -0.332,0.282 -0.497,0.617 -0.497,1.01 v 4.58 h -0.899 v 1.211 h 0.899 v 1.921 h 1.827 V 7.072 H 0 V 5.861 H -1.017 V 1.646 c 0,-0.271 0.204,-0.407 0.613,-0.407 C -0.308,1.25 -0.173,1.26 0,1.267 Z"
         style="fill:#a3a6a6;fill-opacity:1;fill-rule:nonzero;stroke:none"
         id="path314"
         inkscape:connector-curvature="0" />
    </g>
    <g
       id="g316"
       transform="matrix(0.35277777,0,0,-0.35277777,31.846883,293.459)">
      <path
         d="m 0,0 h -1.825 v 0.845 c -0.479,-0.755 -1.157,-1.134 -2.037,-1.134 -0.782,0 -1.39,0.237 -1.825,0.706 -0.41,0.436 -0.614,0.996 -0.614,1.682 v 4.969 h 1.827 V 2.241 c 0,-0.285 0.109,-0.512 0.326,-0.675 0.217,-0.167 0.509,-0.247 0.874,-0.247 0.392,0 0.73,0.111 1.018,0.337 0.287,0.227 0.431,0.491 0.431,0.794 V 7.068 H 0 Z"
         style="fill:#a3a6a6;fill-opacity:1;fill-rule:nonzero;stroke:none"
         id="path318"
         inkscape:connector-curvature="0" />
    </g>
    <g
       id="g320"
       transform="matrix(0.35277777,0,0,-0.35277777,34.327484,291.57697)">
      <path
         d="m 0,0 c -0.243,0.024 -0.422,0.038 -0.534,0.038 -0.514,0 -0.916,-0.136 -1.208,-0.411 -0.29,-0.274 -0.436,-0.619 -0.436,-1.036 v -3.926 h -1.827 v 7.068 h 1.827 V 0.365 c 0.13,0.418 0.39,0.769 0.782,1.055 0.392,0.289 0.783,0.431 1.174,0.431 0.044,0 0.118,-0.01 0.222,-0.024 z"
         style="fill:#a3a6a6;fill-opacity:1;fill-rule:nonzero;stroke:none"
         id="path322"
         inkscape:connector-curvature="0" />
    </g>
    <g
       id="g324"
       transform="matrix(0.35277777,0,0,-0.35277777,36.541332,292.37381)">
      <path
         d="M 0,0 V 0.275 C -0.264,0.129 -0.528,0.035 -0.8,0 c -0.639,-0.077 -1.066,-0.174 -1.286,-0.285 -0.305,-0.15 -0.459,-0.411 -0.459,-0.783 0,-0.539 0.338,-0.807 1.011,-0.807 C -0.512,-1.875 0,-1.249 0,0 M 2.126,-3.076 H 0.182 c -0.087,0.139 -0.151,0.368 -0.195,0.692 -0.671,-0.671 -1.423,-1.006 -2.257,-1.006 -0.678,0 -1.196,0.192 -1.553,0.568 -0.357,0.379 -0.535,0.915 -0.535,1.611 0,0.574 0.17,1.065 0.509,1.472 0.339,0.411 0.796,0.658 1.37,0.745 0.269,0.035 0.727,0.097 1.37,0.184 0.383,0.06 0.658,0.153 0.828,0.279 0.169,0.125 0.263,0.327 0.281,0.605 0.025,0.481 -0.353,0.721 -1.135,0.721 -0.818,0 -1.239,-0.386 -1.267,-1.149 h -1.734 c 0.035,0.835 0.284,1.455 0.75,1.859 0.465,0.403 1.194,0.605 2.186,0.605 1.947,0 2.921,-0.752 2.921,-2.255 v -3.901 c 0,-0.303 0.135,-0.567 0.405,-0.797 z"
         style="fill:#a3a6a6;fill-opacity:1;fill-rule:nonzero;stroke:none"
         id="path326"
         inkscape:connector-curvature="0" />
    </g>
    <path
       d="m 38.879442,293.4591 h -0.690386 v -0.67133 h 0.690386 z"
       style="fill:#a3a6a6;fill-opacity:1;fill-rule:nonzero;stroke:none;stroke-width:0.35277775"
       id="path328"
       inkscape:connector-curvature="0" />
    <g
       id="g330"
       transform="matrix(0.35277777,0,0,-0.35277777,41.502587,292.26563)">
      <path
         d="m 0,0 c 0,0.65 -0.144,1.187 -0.429,1.601 -0.286,0.417 -0.645,0.626 -1.078,0.626 -0.467,0 -0.84,-0.202 -1.117,-0.599 -0.278,-0.4 -0.415,-0.932 -0.415,-1.6 0,-0.675 0.143,-1.208 0.428,-1.598 0.259,-0.376 0.593,-0.564 1,-0.564 0.476,0 0.864,0.199 1.164,0.592 C -0.15,-1.145 0,-0.63 0,0 M 1.826,-3.425 H 0 v 0.773 c -0.453,-0.689 -1.175,-1.03 -2.166,-1.03 -0.8,0 -1.47,0.411 -2.008,1.239 -0.488,0.755 -0.731,1.608 -0.731,2.554 0,1.01 0.221,1.848 0.665,2.506 0.54,0.79 1.33,1.186 2.375,1.186 0.861,0 1.482,-0.365 1.865,-1.096 v 3.421 h 1.826 z"
         style="fill:#a3a6a6;fill-opacity:1;fill-rule:nonzero;stroke:none"
         id="path332"
         inkscape:connector-curvature="0" />
    </g>
    <g
       id="g334"
       transform="matrix(0.35277777,0,0,-0.35277777,44.650437,291.9821)">
      <path
         d="M 0,0 C -0.053,0.985 -0.509,1.476 -1.37,1.476 -2.239,1.476 -2.722,0.985 -2.818,0 Z m 1.931,-0.665 c 0,-0.209 -0.014,-0.397 -0.039,-0.56 h -4.685 c -0.017,-0.052 -0.025,-0.136 -0.025,-0.251 0,-0.459 0.142,-0.828 0.426,-1.113 0.285,-0.282 0.656,-0.425 1.111,-0.425 0.303,0 0.584,0.087 0.841,0.261 0.234,0.167 0.38,0.355 0.44,0.561 H 1.852 C 1.609,-2.878 1.18,-3.431 0.567,-3.849 c -0.613,-0.418 -1.298,-0.627 -2.056,-0.627 -0.842,0 -1.552,0.268 -2.124,0.797 -0.689,0.634 -1.032,1.542 -1.032,2.725 0,1.271 0.276,2.248 0.829,2.931 C -3.264,2.659 -2.47,3 -1.435,3 -0.425,3 0.387,2.662 1.004,1.991 1.622,1.315 1.931,0.432 1.931,-0.665"
         style="fill:#a3a6a6;fill-opacity:1;fill-rule:nonzero;stroke:none"
         id="path336"
         inkscape:connector-curvature="0" />
    </g>
    <g
       id="g338"
       transform="matrix(0.35277777,0,0,-0.35277777,48.323417,292.69917)">
      <path
         d="m 0,0 c 0,-0.734 -0.271,-1.326 -0.81,-1.782 -0.539,-0.459 -1.252,-0.685 -2.139,-0.685 -1.088,0 -1.925,0.205 -2.512,0.619 -0.586,0.411 -0.902,1.002 -0.946,1.768 h 1.801 c 0.07,-0.355 0.299,-0.623 0.691,-0.797 0.305,-0.149 0.665,-0.219 1.084,-0.219 0.268,0 0.492,0.073 0.671,0.223 0.179,0.146 0.268,0.327 0.268,0.536 0,0.212 -0.06,0.365 -0.183,0.462 -0.095,0.07 -0.307,0.154 -0.637,0.251 l -2.062,0.592 c -0.914,0.271 -1.371,0.884 -1.371,1.837 0,0.668 0.261,1.208 0.782,1.615 0.523,0.411 1.245,0.612 2.167,0.612 0.896,0 1.619,-0.216 2.171,-0.65 0.552,-0.435 0.834,-1.02 0.841,-1.747 h -1.761 c 0.027,0.303 -0.08,0.546 -0.318,0.734 -0.24,0.188 -0.599,0.282 -1.078,0.282 -0.26,0 -0.491,-0.063 -0.691,-0.185 -0.234,-0.128 -0.352,-0.299 -0.352,-0.508 0,-0.233 0.077,-0.372 0.235,-0.417 L -1.54,1.824 C -0.514,1.545 0,0.937 0,0"
         style="fill:#a3a6a6;fill-opacity:1;fill-rule:nonzero;stroke:none"
         id="path340"
         inkscape:connector-curvature="0" />
    </g>
    <g
       id="g342"
       transform="matrix(0.35277777,0,0,-0.35277777,50.610367,292.37381)">
      <path
         d="M 0,0 V 0.275 C -0.262,0.129 -0.528,0.035 -0.8,0 c -0.637,-0.077 -1.066,-0.174 -1.285,-0.285 -0.306,-0.15 -0.459,-0.411 -0.459,-0.783 0,-0.539 0.337,-0.807 1.009,-0.807 C -0.511,-1.875 0,-1.249 0,0 M 2.126,-3.076 H 0.182 C 0.096,-2.937 0.03,-2.708 -0.014,-2.384 -0.682,-3.055 -1.435,-3.39 -2.27,-3.39 c -0.679,0 -1.195,0.192 -1.552,0.568 -0.357,0.379 -0.536,0.915 -0.536,1.611 0,0.574 0.17,1.065 0.509,1.472 0.34,0.411 0.796,0.658 1.37,0.745 0.269,0.035 0.727,0.097 1.37,0.184 0.383,0.06 0.659,0.153 0.829,0.279 0.169,0.125 0.262,0.327 0.28,0.605 0.026,0.481 -0.352,0.721 -1.135,0.721 -0.816,0 -1.239,-0.386 -1.266,-1.149 h -1.734 c 0.034,0.835 0.284,1.455 0.75,1.859 0.464,0.403 1.193,0.605 2.185,0.605 1.948,0 2.923,-0.752 2.923,-2.255 v -3.901 c 0,-0.303 0.134,-0.567 0.403,-0.797 z"
         style="fill:#a3a6a6;fill-opacity:1;fill-rule:nonzero;stroke:none"
         id="path344"
         inkscape:connector-curvature="0" />
    </g>
    <g
       id="g346"
       transform="matrix(0.35277777,0,0,-0.35277777,53.666407,291.57697)">
      <path
         d="m 0,0 c -0.245,0.024 -0.423,0.038 -0.535,0.038 -0.513,0 -0.915,-0.136 -1.208,-0.411 -0.291,-0.274 -0.436,-0.619 -0.436,-1.036 v -3.926 h -1.827 v 7.068 h 1.827 V 0.365 c 0.13,0.418 0.391,0.769 0.782,1.055 0.391,0.289 0.783,0.431 1.174,0.431 0.044,0 0.119,-0.01 0.223,-0.024 z"
         style="fill:#a3a6a6;fill-opacity:1;fill-rule:nonzero;stroke:none"
         id="path348"
         inkscape:connector-curvature="0" />
    </g>
    <g
       id="g350"
       transform="matrix(0.35277777,0,0,-0.35277777,55.916847,291.57697)">
      <path
         d="m 0,0 c -0.245,0.024 -0.423,0.038 -0.536,0.038 -0.512,0 -0.914,-0.136 -1.206,-0.411 -0.291,-0.274 -0.437,-0.619 -0.437,-1.036 v -3.926 h -1.826 v 7.068 h 1.826 V 0.365 c 0.13,0.418 0.39,0.769 0.783,1.055 0.391,0.289 0.782,0.431 1.173,0.431 0.044,0 0.118,-0.01 0.223,-0.024 z"
         style="fill:#a3a6a6;fill-opacity:1;fill-rule:nonzero;stroke:none"
         id="path352"
         inkscape:connector-curvature="0" />
    </g>
    <g
       id="g354"
       transform="matrix(0.35277777,0,0,-0.35277777,58.443487,292.24599)">
      <path
         d="m 0,0 c 0,0.647 -0.157,1.176 -0.47,1.586 -0.313,0.408 -0.709,0.61 -1.186,0.61 -0.479,0 -0.873,-0.216 -1.182,-0.651 -0.308,-0.432 -0.463,-0.988 -0.463,-1.664 0,-0.563 0.164,-1.047 0.49,-1.443 0.325,-0.401 0.719,-0.6 1.181,-0.6 0.477,0 0.869,0.203 1.174,0.606 C -0.152,-1.152 0,-0.633 0,0 m 1.827,0.003 c 0,-1.19 -0.311,-2.112 -0.934,-2.763 -0.622,-0.654 -1.498,-0.978 -2.628,-0.978 -1.053,0 -1.883,0.338 -2.492,1.016 -0.609,0.679 -0.913,1.605 -0.913,2.778 0,1.158 0.304,2.063 0.913,2.714 0.609,0.654 1.465,0.978 2.571,0.978 1.096,0 1.949,-0.331 2.563,-0.992 0.612,-0.661 0.92,-1.576 0.92,-2.753"
         style="fill:#a3a6a6;fill-opacity:1;fill-rule:nonzero;stroke:none"
         id="path356"
         inkscape:connector-curvature="0" />
    </g>
    <path
       d="m 60.693807,293.4591 h -0.64452 v -3.35527 h 0.64452 z"
       style="fill:#a3a6a6;fill-opacity:1;fill-rule:nonzero;stroke:none;stroke-width:0.35277775"
       id="path358"
       inkscape:connector-curvature="0" />
    <path
       d="m 62.433357,293.4591 h -0.64453 v -3.35527 h 0.64453 z"
       style="fill:#a3a6a6;fill-opacity:1;fill-rule:nonzero;stroke:none;stroke-width:0.35277775"
       id="path360"
       inkscape:connector-curvature="0" />
    <g
       id="g362"
       transform="matrix(0.35277777,0,0,-0.35277777,65.194647,292.24599)">
      <path
         d="m 0,0 c 0,0.647 -0.156,1.176 -0.469,1.586 -0.314,0.408 -0.71,0.61 -1.188,0.61 -0.478,0 -0.871,-0.216 -1.179,-0.651 C -3.146,1.113 -3.3,0.557 -3.3,-0.119 c 0,-0.563 0.163,-1.047 0.488,-1.443 0.326,-0.401 0.72,-0.6 1.181,-0.6 0.478,0 0.871,0.203 1.175,0.606 C -0.152,-1.152 0,-0.633 0,0 m 1.826,0.003 c 0,-1.19 -0.31,-2.112 -0.932,-2.763 -0.623,-0.654 -1.498,-0.978 -2.629,-0.978 -1.053,0 -1.883,0.338 -2.492,1.016 -0.609,0.679 -0.913,1.605 -0.913,2.778 0,1.158 0.304,2.063 0.913,2.714 0.609,0.654 1.466,0.978 2.57,0.978 1.097,0 1.951,-0.331 2.565,-0.992 C 1.52,2.095 1.826,1.18 1.826,0.003"
         style="fill:#a3a6a6;fill-opacity:1;fill-rule:nonzero;stroke:none"
         id="path364"
         inkscape:connector-curvature="0" />
    </g>
    <g
       id="g366"
       transform="matrix(0.35277777,0,0,-0.35277777,68.885717,292.69917)">
      <path
         d="m 0,0 c 0,-0.734 -0.269,-1.326 -0.808,-1.782 -0.54,-0.459 -1.253,-0.685 -2.14,-0.685 -1.087,0 -1.924,0.205 -2.511,0.619 -0.588,0.411 -0.903,1.002 -0.946,1.768 h 1.8 c 0.069,-0.355 0.299,-0.623 0.691,-0.797 0.305,-0.149 0.665,-0.219 1.085,-0.219 0.268,0 0.491,0.073 0.671,0.223 0.178,0.146 0.267,0.327 0.267,0.536 0,0.212 -0.06,0.365 -0.183,0.462 -0.094,0.07 -0.306,0.154 -0.637,0.251 l -2.062,0.592 c -0.914,0.271 -1.371,0.884 -1.371,1.837 0,0.668 0.261,1.208 0.782,1.615 0.523,0.411 1.244,0.612 2.166,0.612 0.896,0 1.62,-0.216 2.173,-0.65 0.551,-0.435 0.833,-1.02 0.84,-1.747 h -1.761 c 0.027,0.303 -0.08,0.546 -0.319,0.734 -0.238,0.188 -0.597,0.282 -1.076,0.282 -0.26,0 -0.492,-0.063 -0.691,-0.185 -0.236,-0.128 -0.353,-0.299 -0.353,-0.508 0,-0.233 0.077,-0.372 0.235,-0.417 L -1.539,1.824 C -0.512,1.545 0,0.937 0,0"
         style="fill:#a3a6a6;fill-opacity:1;fill-rule:nonzero;stroke:none"
         id="path368"
         inkscape:connector-curvature="0" />
    </g>
  </g>
</svg>
