<?xml version="1.0" encoding="UTF-8" standalone="no"?>
<svg
   xmlns:dc="http://purl.org/dc/elements/1.1/"
   xmlns:cc="http://creativecommons.org/ns#"
   xmlns:rdf="http://www.w3.org/1999/02/22-rdf-syntax-ns#"
   xmlns:svg="http://www.w3.org/2000/svg"
   xmlns="http://www.w3.org/2000/svg"
   id="svg4189"
   version="1.1"
   viewBox="0 0 83.102997 34.987999"
   height="34.987999mm"
   width="83.102997mm">
  <defs
     id="defs4183">
    <clipPath
       id="clipPath50"
       clipPathUnits="userSpaceOnUse">
      <path
         id="path48"
         d="M 0,6202.167 H 1910 V 0 H 0 Z" />
    </clipPath>
  </defs>
  <metadata
     id="metadata4186">
    <rdf:RDF>
      <cc:Work
         rdf:about="">
        <dc:format>image/svg+xml</dc:format>
        <dc:type
           rdf:resource="http://purl.org/dc/dcmitype/StillImage" />
        <dc:title></dc:title>
      </cc:Work>
    </rdf:RDF>
  </metadata>
  <g
     transform="translate(0,-262.012)"
     id="layer1">
    <g
       transform="matrix(0.35277777,0,0,-0.35277777,19.39918,292.85953)"
       id="g38">
      <path
         id="path40"
         style="fill:#ffffff;fill-opacity:1;fill-rule:nonzero;stroke:none"
         d="M 0,0 -3.894,0.019 V -11.589 H -4.757 V 0.019 L -8.651,0 V 0.791 H 0 Z" />
    </g>
    <path
       id="path42"
       style="fill:#ffffff;fill-opacity:1;fill-rule:nonzero;stroke:none;stroke-width:0.35277775"
       d="m 20.086178,296.94794 h 0.304095 v -4.36703 h -0.304095 z" />
    <g
       id="g44"
       transform="matrix(0.35277777,0,0,-0.35277777,-44.966042,2439.8693)">
      <g
         clip-path="url(#clipPath50)"
         id="g46">
        <g
           transform="translate(193.5104,6086.9507)"
           id="g52">
          <path
             id="path54"
             style="fill:#ffffff;fill-opacity:1;fill-rule:nonzero;stroke:none"
             d="M 0,0 C 0.735,0 1.368,-0.078 1.901,-0.23 2.433,-0.384 2.877,-0.546 3.233,-0.717 L 3.012,-1.433 C 2.657,-1.25 2.232,-1.097 1.735,-0.975 1.24,-0.852 0.698,-0.79 0.11,-0.79 c -0.735,0 -1.406,-0.114 -2.011,-0.34 -0.607,-0.227 -1.124,-0.579 -1.553,-1.057 -0.428,-0.478 -0.761,-1.083 -1.001,-1.818 -0.239,-0.735 -0.357,-1.61 -0.357,-2.627 0,-0.771 0.097,-1.478 0.293,-2.121 0.195,-0.643 0.475,-1.197 0.836,-1.663 0.361,-0.465 0.802,-0.826 1.322,-1.084 0.52,-0.257 1.111,-0.386 1.773,-0.386 0.441,0 0.87,0.093 1.286,0.276 0.415,0.184 0.786,0.439 1.111,0.762 0.324,0.325 0.582,0.714 0.772,1.167 0.189,0.452 0.284,0.949 0.284,1.488 V -6.65 H 0.239 v 0.698 h 3.453 v -6.576 H 3.086 l -0.221,2.039 c -0.318,-0.613 -0.78,-1.13 -1.386,-1.553 -0.607,-0.421 -1.332,-0.633 -2.178,-0.633 -0.771,0 -1.463,0.15 -2.075,0.45 -0.612,0.299 -1.136,0.717 -1.571,1.248 -0.434,0.534 -0.765,1.17 -0.991,1.911 -0.227,0.74 -0.34,1.56 -0.34,2.453 0,1.101 0.138,2.066 0.413,2.892 0.276,0.826 0.661,1.516 1.158,2.067 0.495,0.551 1.093,0.964 1.79,1.239 C -1.617,-0.138 -0.845,0 0,0" />
        </g>
        <g
           transform="translate(207.6171,6083.2397)"
           id="g56">
          <path
             id="path58"
             style="fill:#ffffff;fill-opacity:1;fill-rule:nonzero;stroke:none"
             d="m 0,0 c 0,0.869 -0.26,1.552 -0.78,2.048 -0.521,0.496 -1.29,0.744 -2.306,0.744 h -3.453 v -5.639 h 3.325 c 1.004,0 1.79,0.25 2.36,0.752 C -0.286,-1.593 0,-0.894 0,0 m 0.863,0 c 0,-0.992 -0.284,-1.791 -0.853,-2.397 -0.57,-0.606 -1.333,-0.989 -2.288,-1.148 l 3.216,-5.272 h -0.956 l -3.16,5.197 h -0.036 -3.325 v -5.197 h -0.863 v 12.38 h 4.316 c 0.624,0 1.182,-0.086 1.672,-0.257 0.489,-0.172 0.903,-0.413 1.24,-0.725 C 0.162,2.269 0.42,1.892 0.597,1.451 0.774,1.01 0.863,0.526 0.863,0" />
        </g>
        <g
           transform="translate(210.9418,6086.8027)"
           id="g60">
          <path
             id="path62"
             style="fill:#ffffff;fill-opacity:1;fill-rule:nonzero;stroke:none"
             d="M 0,0 H 7.237 V -0.771 H 0.863 v -4.85 h 5.97 v -0.771 h -5.97 v -5.236 H 7.348 V -12.38 H 0 Z" />
        </g>
        <g
           transform="translate(227.2349,6074.2754)"
           id="g64">
          <path
             id="path66"
             style="fill:#ffffff;fill-opacity:1;fill-rule:nonzero;stroke:none"
             d="m 0,0 c -0.87,0 -1.57,0.077 -2.103,0.23 -0.533,0.152 -0.983,0.333 -1.35,0.541 l 0.257,0.718 C -2.781,1.281 -2.321,1.105 -1.819,0.964 -1.317,0.824 -0.711,0.753 0,0.753 c 0.453,0 0.875,0.052 1.268,0.157 0.392,0.103 0.725,0.263 1,0.478 0.276,0.214 0.493,0.487 0.652,0.817 0.159,0.33 0.24,0.727 0.24,1.194 0,0.477 -0.087,0.863 -0.257,1.158 C 2.731,4.85 2.498,5.091 2.203,5.281 1.91,5.471 1.573,5.627 1.194,5.75 0.814,5.872 0.422,6 0.019,6.135 -0.398,6.27 -0.815,6.426 -1.231,6.604 -1.648,6.781 -2.02,7.002 -2.352,7.265 c -0.331,0.263 -0.6,0.588 -0.808,0.974 -0.208,0.386 -0.312,0.847 -0.312,1.387 0,0.416 0.067,0.811 0.202,1.184 0.135,0.374 0.352,0.699 0.652,0.974 0.301,0.275 0.686,0.493 1.157,0.652 0.471,0.159 1.038,0.239 1.7,0.239 0.636,0 1.215,-0.074 1.736,-0.22 0.52,-0.148 0.957,-0.312 1.312,-0.497 L 3.049,11.315 c -0.38,0.185 -0.821,0.331 -1.323,0.441 -0.501,0.11 -0.991,0.166 -1.469,0.166 -1.028,0 -1.769,-0.215 -2.222,-0.643 -0.453,-0.429 -0.681,-0.999 -0.681,-1.708 0,-0.405 0.071,-0.745 0.212,-1.02 0.141,-0.276 0.34,-0.514 0.597,-0.717 C -1.58,7.632 -1.274,7.454 -0.918,7.303 -0.563,7.148 -0.165,6.999 0.275,6.852 0.754,6.692 1.215,6.527 1.662,6.356 2.109,6.184 2.504,5.973 2.847,5.722 3.189,5.471 3.465,5.162 3.674,4.794 3.883,4.427 3.986,3.962 3.986,3.399 3.986,2.847 3.89,2.361 3.701,1.938 3.511,1.516 3.242,1.16 2.893,0.873 2.544,0.585 2.125,0.369 1.634,0.221 1.145,0.074 0.6,0 0,0" />
        </g>
        <g
           transform="translate(238.0907,6074.2754)"
           id="g68">
          <path
             id="path70"
             style="fill:#ffffff;fill-opacity:1;fill-rule:nonzero;stroke:none"
             d="m 0,0 c -0.662,0 -1.265,0.099 -1.809,0.294 -0.546,0.196 -1.011,0.502 -1.397,0.919 -0.386,0.415 -0.686,0.936 -0.9,1.561 -0.215,0.625 -0.322,1.372 -0.322,2.241 v 7.512 h 0.864 V 4.996 c 0,-1.481 0.318,-2.552 0.955,-3.214 C -1.973,1.12 -1.103,0.789 0,0.789 c 1.101,0 1.971,0.331 2.608,0.993 0.636,0.662 0.955,1.733 0.955,3.214 v 7.531 H 4.426 V 5.015 C 4.426,4.146 4.319,3.399 4.105,2.774 3.891,2.149 3.591,1.628 3.206,1.213 2.819,0.796 2.354,0.49 1.808,0.294 1.264,0.099 0.66,0 0,0" />
        </g>
        <g
           transform="translate(253.0965,6083.2397)"
           id="g72">
          <path
             id="path74"
             style="fill:#ffffff;fill-opacity:1;fill-rule:nonzero;stroke:none"
             d="M 0,0 C 0,0.869 -0.26,1.552 -0.78,2.048 -1.3,2.544 -2.069,2.792 -3.085,2.792 h -3.454 v -5.639 h 3.325 c 1.004,0 1.791,0.25 2.36,0.752 C -0.284,-1.593 0,-0.894 0,0 m 0.864,0 c 0,-0.992 -0.285,-1.791 -0.855,-2.397 -0.569,-0.606 -1.33,-0.989 -2.286,-1.148 l 3.214,-5.272 h -0.955 l -3.159,5.197 h -0.037 -3.325 v -5.197 h -0.862 v 12.38 h 4.316 c 0.625,0 1.181,-0.086 1.671,-0.257 0.49,-0.172 0.903,-0.413 1.24,-0.725 C 0.163,2.269 0.42,1.892 0.598,1.451 0.775,1.01 0.864,0.526 0.864,0" />
        </g>
        <g
           transform="translate(140.5658,6099.7827)"
           id="g76">
          <path
             id="path78"
             style="fill:#ffffff;fill-opacity:1;fill-rule:nonzero;stroke:none"
             d="m 0,0 c 0.206,0.531 0.465,1.173 0.775,1.925 0.31,0.753 0.671,1.542 1.084,2.368 l 9.031,18.769 h 2.125 V -6.773 h -2.037 v 21.47 c 0,0.382 0.007,0.811 0.022,1.282 0.014,0.473 0.036,0.953 0.067,1.439 0.028,0.487 0.059,0.968 0.088,1.438 0.029,0.473 0.073,0.901 0.133,1.285 H 11.2 C 11.111,19.875 10.993,19.551 10.844,19.167 10.697,18.784 10.549,18.393 10.403,17.994 10.255,17.595 10.1,17.212 9.938,16.843 9.776,16.475 9.635,16.156 9.517,15.891 L 0.974,-1.638 h -2.036 l -8.544,17.529 c -0.118,0.265 -0.258,0.584 -0.42,0.952 -0.163,0.369 -0.318,0.752 -0.465,1.151 -0.148,0.399 -0.296,0.79 -0.443,1.173 -0.149,0.384 -0.266,0.708 -0.354,0.974 h -0.088 c 0.029,-0.384 0.066,-0.812 0.11,-1.285 0.044,-0.47 0.081,-0.951 0.11,-1.438 0.03,-0.486 0.051,-0.966 0.067,-1.439 0.015,-0.471 0.022,-0.9 0.022,-1.282 v -21.47 h -2.036 v 29.835 h 2.125 L -1.948,4.293 C -1.535,3.467 -1.173,2.678 -0.863,1.925 -0.554,1.173 -0.295,0.531 -0.089,0 Z" />
        </g>
        <g
           transform="translate(161.3704,6122.8452)"
           id="g80">
          <path
             id="path82"
             style="fill:#ffffff;fill-opacity:1;fill-rule:nonzero;stroke:none"
             d="M 0,0 H 17.441 V -1.86 H 2.08 v -11.685 h 14.387 v -1.86 H 2.08 v -12.616 h 15.627 v -1.814 H 0 Z" />
        </g>
        <g
           transform="translate(203.0253,6114.2573)"
           id="g84">
          <path
             id="path86"
             style="fill:#ffffff;fill-opacity:1;fill-rule:nonzero;stroke:none"
             d="m 0,0 c 0,2.095 -0.627,3.742 -1.881,4.936 -1.255,1.196 -3.107,1.792 -5.555,1.792 h -8.323 V -6.86 h 8.012 c 2.419,0 4.316,0.603 5.689,1.814 C -0.686,-3.836 0,-2.154 0,0 M 2.081,0 C 2.081,-2.389 1.395,-4.315 0.022,-5.776 -1.35,-7.237 -3.187,-8.16 -5.489,-8.544 L 2.258,-21.248 H -0.045 L -7.658,-8.72 h -0.089 -8.012 v -12.528 h -2.08 V 8.588 h 10.403 c 1.504,0 2.846,-0.207 4.027,-0.62 C -2.229,7.554 -1.233,6.973 -0.421,6.22 0.391,5.467 1.01,4.56 1.439,3.498 1.866,2.435 2.081,1.27 2.081,0" />
        </g>
        <g
           transform="translate(243.485,6107.9717)"
           id="g88">
          <path
             id="path90"
             style="fill:#ffffff;fill-opacity:1;fill-rule:nonzero;stroke:none"
             d="m 0,0 c 0,4.574 -1.107,7.879 -3.32,9.916 -2.213,2.036 -5.356,3.055 -9.429,3.055 h -5.224 v -26.03 h 5.224 c 2.036,0 3.843,0.251 5.423,0.753 1.578,0.502 2.913,1.284 4.006,2.347 1.091,1.062 1.918,2.419 2.478,4.072 C -0.281,-4.235 0,-2.273 0,0 m 2.081,0 c 0,-4.898 -1.255,-8.618 -3.765,-11.154 -2.508,-2.54 -6.196,-3.808 -11.065,-3.808 h -7.305 v 29.836 h 7.305 c 4.869,0 8.557,-1.262 11.065,-3.785 C 0.826,8.566 2.081,4.869 2.081,0" />
        </g>
        <path
           id="path92"
           style="fill:#ffffff;fill-opacity:1;fill-rule:nonzero;stroke:none"
           d="m 253.842,6093.01 h -2.081 v 29.835 h 2.081 z" />
        <g
           transform="translate(261.7214,6122.8452)"
           id="g94">
          <path
             id="path96"
             style="fill:#ffffff;fill-opacity:1;fill-rule:nonzero;stroke:none"
             d="M 0,0 H 17.441 V -1.86 H 2.081 v -11.685 h 14.386 v -1.86 H 2.081 v -12.616 h 15.625 v -1.814 H 0 Z" />
        </g>
        <g
           transform="translate(293.0173,6092.6558)"
           id="g98">
          <path
             id="path100"
             style="fill:#ffffff;fill-opacity:1;fill-rule:nonzero;stroke:none"
             d="m 0,0 c -2.096,0 -3.785,0.185 -5.068,0.553 -1.284,0.369 -2.368,0.804 -3.254,1.306 l 0.62,1.726 c 1.002,-0.502 2.109,-0.922 3.32,-1.261 1.209,-0.34 2.67,-0.51 4.382,-0.51 1.092,0 2.111,0.126 3.054,0.377 0.945,0.25 1.749,0.634 2.413,1.15 0.664,0.516 1.187,1.175 1.572,1.971 0.383,0.796 0.575,1.755 0.575,2.877 0,1.151 -0.206,2.081 -0.619,2.789 -0.415,0.708 -0.974,1.291 -1.683,1.748 -0.708,0.458 -1.52,0.834 -2.434,1.129 -0.916,0.294 -1.86,0.604 -2.833,0.93 -1.004,0.324 -2.008,0.701 -3.011,1.129 -1.004,0.427 -1.903,0.959 -2.7,1.593 -0.796,0.634 -1.446,1.417 -1.948,2.347 -0.501,0.929 -0.752,2.042 -0.752,3.341 0,1.003 0.162,1.955 0.487,2.856 0.324,0.9 0.848,1.682 1.571,2.346 0.723,0.664 1.653,1.187 2.789,1.571 1.136,0.384 2.501,0.576 4.095,0.576 1.535,0 2.928,-0.177 4.183,-0.531 1.253,-0.354 2.308,-0.753 3.165,-1.196 L 7.349,27.268 C 6.434,27.712 5.371,28.065 4.161,28.33 2.95,28.596 1.77,28.729 0.62,28.729 c -2.48,0 -4.265,-0.517 -5.356,-1.549 -1.092,-1.034 -1.638,-2.407 -1.638,-4.118 0,-0.974 0.17,-1.792 0.509,-2.456 0.339,-0.664 0.818,-1.24 1.438,-1.726 0.621,-0.487 1.357,-0.916 2.214,-1.285 0.856,-0.368 1.815,-0.73 2.877,-1.084 C 1.815,16.128 2.928,15.729 4.006,15.316 5.083,14.903 6.035,14.393 6.862,13.789 7.687,13.184 8.351,12.438 8.853,11.553 9.355,10.667 9.606,9.545 9.606,8.189 9.606,6.861 9.378,5.688 8.92,4.67 8.461,3.652 7.813,2.796 6.972,2.103 6.131,1.408 5.12,0.885 3.94,0.531 2.759,0.177 1.446,0 0,0" />
        </g>
        <g
           transform="translate(215.8246,6122.8081)"
           id="g102">
          <path
             id="path104"
             style="fill:#ffffff;fill-opacity:1;fill-rule:nonzero;stroke:none"
             d="M 0,0 -1.444,-23.831 V 0.004 l -2.203,0.002 1.836,-29.863 h 0.733 l 1.834,29.856 z" />
        </g>
        <g
           transform="translate(217.5118,6145.4053)"
           id="g106">
          <path
             id="path108"
             style="fill:#ffffff;fill-opacity:1;fill-rule:nonzero;stroke:none"
             d="M 0,0 V 0.014 L 1.72,2.239 15.67,0.451 16.775,0.3 19.15,0 Z m 10.224,-13.226 -7.972,10.305 13.39,1.734 c -0.3,-4.682 -2.32,-8.914 -5.418,-12.039 m -11.084,-5.419 0.805,13.131 10.156,-7.835 C 7.207,-16.215 3.385,-18.14 -0.86,-18.645 m -0.505,16.884 -0.259,0.246 -0.26,0.273 -0.887,0.874 h 2.129 l 0.178,-0.219 1.351,-1.761 0.519,-0.682 5.118,-6.634 -6.456,6.456 -0.327,0.342 z m -1.406,4.259 0.382,0.273 0.41,0.328 0.409,0.314 0.792,0.614 0.327,0.259 0.342,0.259 6.647,5.119 -6.47,-6.456 V 3.194 L -0.587,2.539 -2.771,0.369 Z M 10.101,13.35 -0.218,5.392 -1.938,18.741 C 2.744,18.454 6.961,16.448 10.101,13.35 M 15.642,1.201 2.252,2.921 10.224,13.227 C 13.322,10.101 15.342,5.883 15.642,1.201 M -3.126,3.14 h -0.013 l -0.11,0.082 -0.409,0.327 -1.72,1.324 1.802,13.895 0.136,1.106 0.314,2.402 z M -5.624,0.369 -5.801,0.587 -7.152,2.348 -7.671,3.03 -12.803,9.664 h 0.013 l 6.457,-6.456 0.327,-0.341 1.624,-1.625 0.888,-0.873 z m 2.13,-2.867 -0.369,-0.273 -0.423,-0.327 -0.409,-0.314 -0.86,-0.669 -0.355,-0.273 -0.355,-0.273 -6.525,-5.037 6.457,6.456 0.327,0.342 0.328,0.327 2.184,2.171 z m -12.831,-10.824 10.115,7.808 0.805,-13.117 c -4.232,0.518 -8.04,2.457 -10.92,5.309 m -5.514,12.121 13.322,-1.72 -7.931,-10.278 c -3.098,3.139 -5.091,7.33 -5.391,11.998 M -22.972,-0.314 -25.415,0 h 19.15 v -0.014 l -1.72,-2.238 -13.882,1.802 z m 6.524,13.513 7.931,-10.278 -13.322,-1.72 c 0.3,4.669 2.306,8.859 5.391,11.998 m 12.121,5.542 -1.72,-13.349 -10.278,7.93 c 3.126,3.098 7.33,5.105 11.998,5.419 M 16.762,1.051 C 16.229,11.193 8.067,19.342 -2.075,19.86 L -3.126,28.05 -4.19,19.86 C -14.291,19.301 -22.426,11.179 -22.958,1.065 L -31.175,0 l 8.217,-1.064 c 0.518,-9.719 8.053,-17.608 17.621,-18.7 0,0 0.696,-0.096 2.225,-0.082 l -0.014,1.065 v 15.642 l 0.109,-0.082 0.41,-0.328 1.843,-1.419 -0.806,-13.24 -0.095,-1.597 c 0.245,0.013 0.478,0.027 0.737,0.041 9.609,1.051 17.171,8.954 17.69,18.713 L 24.91,0 Z" />
        </g>
        <g
           transform="translate(304.6287,6074.4053)"
           id="g110">
          <path
             id="path112"
             style="fill:#ffffff;fill-opacity:1;fill-rule:nonzero;stroke:none"
             d="m 0,0 v 8.342 c 0,6.448 0.379,10.999 3.792,16.687 3.54,5.941 8.217,9.86 13.146,14.537 2.782,2.655 5.689,5.309 8.47,7.837 4.425,4.172 7.711,6.827 8.722,9.228 0.759,1.644 0.759,3.666 0.759,5.563 v 7.205 c 0,4.804 -1.264,6.953 -6.32,6.826 -4.931,0 -6.194,-2.275 -6.194,-6.7 V 55.241 H 0 v 12.135 c 0,1.265 0,2.529 0.126,3.666 0.127,2.781 0.632,8.091 6.068,13.021 6.194,5.562 14.158,6.826 22.248,6.826 11.757,0 18.33,-2.529 22.502,-5.942 0.757,-0.632 3.412,-3.033 4.803,-6.067 1.39,-3.034 2.149,-6.952 2.149,-14.158 0,-7.331 -0.506,-12.389 -5.31,-18.203 C 49.047,42.094 40.325,34.51 36.153,30.718 c -2.402,-2.15 -6.32,-5.689 -8.09,-8.47 -1.391,-2.275 -1.517,-3.666 -1.643,-4.931 H 58.401 V 0 Z" />
        </g>
      </g>
    </g>
  </g>
</svg>
